<mxfile host="Electron" agent="Mozilla/5.0 (Windows NT 10.0; Win64; x64) AppleWebKit/537.36 (KHTML, like Gecko) draw.io/24.7.17 Chrome/128.0.6613.36 Electron/32.0.1 Safari/537.36" version="24.7.17">
  <diagram name="Page-1" id="mqJQ5c2kNA3ZxZKOHx-5">
    <mxGraphModel dx="605" dy="756" grid="1" gridSize="10" guides="1" tooltips="1" connect="1" arrows="1" fold="1" page="1" pageScale="1" pageWidth="827" pageHeight="1169" math="0" shadow="0">
      <root>
        <mxCell id="0" />
        <mxCell id="1" parent="0" />
        <mxCell id="XAkVPHZbZVvvidoJhrBx-7" value="" style="edgeStyle=orthogonalEdgeStyle;rounded=0;orthogonalLoop=1;jettySize=auto;html=1;" parent="1" source="gLXPA9VZxxK_G1rtPnU9-1" edge="1">
          <mxGeometry relative="1" as="geometry">
            <mxPoint x="140" y="240" as="targetPoint" />
          </mxGeometry>
        </mxCell>
        <mxCell id="gLXPA9VZxxK_G1rtPnU9-1" value="E1" style="verticalLabelPosition=bottom;verticalAlign=top;html=1;shape=offPageConnector;rounded=0;size=0.5;" parent="1" vertex="1">
          <mxGeometry x="110" y="130" width="60" height="60" as="geometry" />
        </mxCell>
        <mxCell id="XAkVPHZbZVvvidoJhrBx-9" value="" style="edgeStyle=orthogonalEdgeStyle;rounded=0;orthogonalLoop=1;jettySize=auto;html=1;" parent="1" target="ZdBy-lXfVyhie4bruy21-1" edge="1">
          <mxGeometry relative="1" as="geometry">
            <mxPoint x="140" y="300" as="sourcePoint" />
          </mxGeometry>
        </mxCell>
        <mxCell id="XAkVPHZbZVvvidoJhrBx-10" value="" style="edgeStyle=orthogonalEdgeStyle;rounded=0;orthogonalLoop=1;jettySize=auto;html=1;" parent="1" source="ZdBy-lXfVyhie4bruy21-1" target="XAkVPHZbZVvvidoJhrBx-1" edge="1">
          <mxGeometry relative="1" as="geometry" />
        </mxCell>
        <mxCell id="ZdBy-lXfVyhie4bruy21-1" value="option == 1" style="rhombus;whiteSpace=wrap;html=1;" parent="1" vertex="1">
          <mxGeometry x="95" y="330" width="90" height="90" as="geometry" />
        </mxCell>
        <mxCell id="XAkVPHZbZVvvidoJhrBx-12" value="" style="edgeStyle=orthogonalEdgeStyle;rounded=0;orthogonalLoop=1;jettySize=auto;html=1;" parent="1" source="XAkVPHZbZVvvidoJhrBx-1" target="XAkVPHZbZVvvidoJhrBx-2" edge="1">
          <mxGeometry relative="1" as="geometry" />
        </mxCell>
        <mxCell id="XAkVPHZbZVvvidoJhrBx-1" value="option == 2" style="rhombus;whiteSpace=wrap;html=1;" parent="1" vertex="1">
          <mxGeometry x="95" y="450" width="90" height="90" as="geometry" />
        </mxCell>
        <mxCell id="XAkVPHZbZVvvidoJhrBx-13" value="" style="edgeStyle=orthogonalEdgeStyle;rounded=0;orthogonalLoop=1;jettySize=auto;html=1;" parent="1" source="XAkVPHZbZVvvidoJhrBx-2" target="XAkVPHZbZVvvidoJhrBx-3" edge="1">
          <mxGeometry relative="1" as="geometry" />
        </mxCell>
        <mxCell id="XAkVPHZbZVvvidoJhrBx-2" value="option == 3" style="rhombus;whiteSpace=wrap;html=1;" parent="1" vertex="1">
          <mxGeometry x="95" y="570" width="90" height="90" as="geometry" />
        </mxCell>
        <mxCell id="XAkVPHZbZVvvidoJhrBx-14" value="" style="edgeStyle=orthogonalEdgeStyle;rounded=0;orthogonalLoop=1;jettySize=auto;html=1;" parent="1" source="XAkVPHZbZVvvidoJhrBx-3" target="XAkVPHZbZVvvidoJhrBx-4" edge="1">
          <mxGeometry relative="1" as="geometry" />
        </mxCell>
        <mxCell id="XAkVPHZbZVvvidoJhrBx-3" value="option == 4" style="rhombus;whiteSpace=wrap;html=1;" parent="1" vertex="1">
          <mxGeometry x="95" y="684" width="90" height="90" as="geometry" />
        </mxCell>
        <mxCell id="XAkVPHZbZVvvidoJhrBx-15" value="" style="edgeStyle=orthogonalEdgeStyle;rounded=0;orthogonalLoop=1;jettySize=auto;html=1;" parent="1" source="XAkVPHZbZVvvidoJhrBx-4" target="XAkVPHZbZVvvidoJhrBx-5" edge="1">
          <mxGeometry relative="1" as="geometry" />
        </mxCell>
        <mxCell id="XAkVPHZbZVvvidoJhrBx-4" value="option == 5" style="rhombus;whiteSpace=wrap;html=1;" parent="1" vertex="1">
          <mxGeometry x="95" y="800" width="90" height="90" as="geometry" />
        </mxCell>
        <mxCell id="XAkVPHZbZVvvidoJhrBx-5" value="option == 6" style="rhombus;whiteSpace=wrap;html=1;" parent="1" vertex="1">
          <mxGeometry x="95" y="920" width="90" height="90" as="geometry" />
        </mxCell>
        <mxCell id="A22gA0da8D0I8UilrCp8-1" value="Accountant Menu" style="rounded=0;whiteSpace=wrap;html=1;" vertex="1" parent="1">
          <mxGeometry x="80" y="240" width="120" height="60" as="geometry" />
        </mxCell>
        <mxCell id="A22gA0da8D0I8UilrCp8-2" value="" style="endArrow=classic;html=1;rounded=0;exitX=1;exitY=0.5;exitDx=0;exitDy=0;" edge="1" parent="1" source="ZdBy-lXfVyhie4bruy21-1">
          <mxGeometry width="50" height="50" relative="1" as="geometry">
            <mxPoint x="370" y="400" as="sourcePoint" />
            <mxPoint x="230" y="375" as="targetPoint" />
          </mxGeometry>
        </mxCell>
        <mxCell id="A22gA0da8D0I8UilrCp8-22" value="" style="edgeStyle=orthogonalEdgeStyle;rounded=0;orthogonalLoop=1;jettySize=auto;html=1;" edge="1" parent="1" source="A22gA0da8D0I8UilrCp8-3" target="A22gA0da8D0I8UilrCp8-21">
          <mxGeometry relative="1" as="geometry" />
        </mxCell>
        <mxCell id="A22gA0da8D0I8UilrCp8-3" value="Tution Fee Record" style="rounded=0;whiteSpace=wrap;html=1;" vertex="1" parent="1">
          <mxGeometry x="230" y="360" width="120" height="32.5" as="geometry" />
        </mxCell>
        <mxCell id="A22gA0da8D0I8UilrCp8-4" value="Yes" style="text;html=1;align=center;verticalAlign=middle;whiteSpace=wrap;rounded=0;" vertex="1" parent="1">
          <mxGeometry x="170" y="350" width="60" height="30" as="geometry" />
        </mxCell>
        <mxCell id="A22gA0da8D0I8UilrCp8-5" value="" style="endArrow=classic;html=1;rounded=0;exitX=1;exitY=0.5;exitDx=0;exitDy=0;" edge="1" parent="1" source="XAkVPHZbZVvvidoJhrBx-1">
          <mxGeometry width="50" height="50" relative="1" as="geometry">
            <mxPoint x="190" y="495" as="sourcePoint" />
            <mxPoint x="230" y="495" as="targetPoint" />
          </mxGeometry>
        </mxCell>
        <mxCell id="A22gA0da8D0I8UilrCp8-6" value="Outstanding Tution Fee" style="rounded=0;whiteSpace=wrap;html=1;" vertex="1" parent="1">
          <mxGeometry x="230" y="477.5" width="120" height="35" as="geometry" />
        </mxCell>
        <mxCell id="A22gA0da8D0I8UilrCp8-7" value="Yes" style="text;html=1;align=center;verticalAlign=middle;whiteSpace=wrap;rounded=0;" vertex="1" parent="1">
          <mxGeometry x="170" y="470" width="60" height="30" as="geometry" />
        </mxCell>
        <mxCell id="A22gA0da8D0I8UilrCp8-8" value="" style="endArrow=classic;html=1;rounded=0;exitX=1;exitY=0.5;exitDx=0;exitDy=0;" edge="1" parent="1">
          <mxGeometry width="50" height="50" relative="1" as="geometry">
            <mxPoint x="185" y="615" as="sourcePoint" />
            <mxPoint x="230" y="615" as="targetPoint" />
          </mxGeometry>
        </mxCell>
        <mxCell id="A22gA0da8D0I8UilrCp8-9" value="Update Payent" style="rounded=0;whiteSpace=wrap;html=1;" vertex="1" parent="1">
          <mxGeometry x="230" y="597.5" width="120" height="35" as="geometry" />
        </mxCell>
        <mxCell id="A22gA0da8D0I8UilrCp8-10" value="Yes" style="text;html=1;align=center;verticalAlign=middle;whiteSpace=wrap;rounded=0;" vertex="1" parent="1">
          <mxGeometry x="170" y="590" width="60" height="30" as="geometry" />
        </mxCell>
        <mxCell id="A22gA0da8D0I8UilrCp8-11" value="" style="endArrow=classic;html=1;rounded=0;exitX=1;exitY=0.5;exitDx=0;exitDy=0;" edge="1" parent="1">
          <mxGeometry width="50" height="50" relative="1" as="geometry">
            <mxPoint x="185" y="728.5" as="sourcePoint" />
            <mxPoint x="230" y="728.5" as="targetPoint" />
          </mxGeometry>
        </mxCell>
        <mxCell id="A22gA0da8D0I8UilrCp8-12" value="Tution Fee Receipt" style="rounded=0;whiteSpace=wrap;html=1;" vertex="1" parent="1">
          <mxGeometry x="230" y="711.5" width="120" height="35" as="geometry" />
        </mxCell>
        <mxCell id="A22gA0da8D0I8UilrCp8-13" value="Yes" style="text;html=1;align=center;verticalAlign=middle;whiteSpace=wrap;rounded=0;" vertex="1" parent="1">
          <mxGeometry x="170" y="700" width="60" height="30" as="geometry" />
        </mxCell>
        <mxCell id="A22gA0da8D0I8UilrCp8-14" value="" style="endArrow=classic;html=1;rounded=0;exitX=1;exitY=0.5;exitDx=0;exitDy=0;" edge="1" parent="1">
          <mxGeometry width="50" height="50" relative="1" as="geometry">
            <mxPoint x="185" y="844.5" as="sourcePoint" />
            <mxPoint x="230" y="844.5" as="targetPoint" />
          </mxGeometry>
        </mxCell>
        <mxCell id="A22gA0da8D0I8UilrCp8-15" value="Financial Summary" style="rounded=0;whiteSpace=wrap;html=1;" vertex="1" parent="1">
          <mxGeometry x="230" y="827.5" width="120" height="35" as="geometry" />
        </mxCell>
        <mxCell id="A22gA0da8D0I8UilrCp8-16" value="Yes" style="text;html=1;align=center;verticalAlign=middle;whiteSpace=wrap;rounded=0;" vertex="1" parent="1">
          <mxGeometry x="170" y="820" width="60" height="30" as="geometry" />
        </mxCell>
        <mxCell id="A22gA0da8D0I8UilrCp8-21" value="1" style="ellipse;whiteSpace=wrap;html=1;aspect=fixed;" vertex="1" parent="1">
          <mxGeometry x="384" y="358.13" width="36.25" height="36.25" as="geometry" />
        </mxCell>
      </root>
    </mxGraphModel>
  </diagram>
</mxfile>
